<?xml version="1.0" encoding="utf-8"?>
<!-- Generator: Adobe Illustrator 26.0.2, SVG Export Plug-In . SVG Version: 6.00 Build 0)  -->
<svg version="1.1" id="Layer_1" xmlns="http://www.w3.org/2000/svg" xmlns:xlink="http://www.w3.org/1999/xlink" x="0px" y="0px"
	 viewBox="0 0 706.6 403.5" style="enable-background:new 0 0 706.6 403.5;" xml:space="preserve">
<style type="text/css">
	.st0{fill:#FFFFFF;}
</style>
<g>
	<path class="st0" d="M700.1,113.3v-87c0-7.8-6.3-14.2-14.2-14.2H449.2H384H119.2c-2.7,0-5.3,0.8-7.6,2.2L85.5,31v-4.7
		c0-7.8-6.3-14.2-14.2-14.2H20.7c-7.8,0-14.2,6.3-14.2,14.2v271.9c0,7.8,6.3,14.2,14.2,14.2h50.6c7.8,0,14.2-6.3,14.2-14.2V133.4
		c0-4.8,2.4-9.2,6.4-11.9L138.6,91h40.3c7.8,0,14.2,6.3,14.2,14.2v132.1c0,7.8,6.3,14.2,14.2,14.2h50.6c7.8,0,14.2-6.3,14.2-14.2
		V105.2c0-7.8,6.3-14.2,14.2-14.2h69.9c7.8,0,14.2,6.3,14.2,14.2v193.4c0,7.6,6.1,13.7,13.7,13.7l0,0h65.2h236.7
		c7.8,0,14.2-6.3,14.2-14.2v-50.6c0-7.8-6.3-14.2-14.2-14.2H477.1c-7.8,0-14.2-6.3-14.2-14.2v-114c0-7.8,6.3-14.2,14.2-14.2H607
		c7.8,0,14.2,6.3,14.2,14.2v8.1c0,7.8,6.3,14.2,14.2,14.2h50.6C693.7,127.5,700.1,121.1,700.1,113.3z"/>
	<g>
		<path class="st0" d="M6.5,391.3V349h2.7v6.1l9.6-6.1h41.7v42.4h-2.7v-39.7H35.4v31.1h-2.7v-31.1H19.6l-10.5,6.8v32.9H6.5z"/>
		<path class="st0" d="M85,391.3V349h37.3v21.7H87.7v18h34.6v2.7H85z M87.7,368h32v-16.4h-32V368z"/>
		<path class="st0" d="M152.3,391.3v-39.7h-5.4V349h5.4v-6h2.7v6h33.8v2.7H155v37h31.1v-4.8h2.7v7.5H152.3z"/>
		<path class="st0" d="M213.3,391.3V368h34.6v-16.4h-34.5V349h37.2v42.4H213.3z M216,388.7h32v-18h-32V388.7z"/>
		<path class="st0" d="M275.2,391.3V349h36.1v7.8h-2.7v-5.1h-30.8v37h33.5v2.7H275.2z"/>
		<path class="st0" d="M335.9,391.3V349h2.7v39.7h17.3l14.8-10.2V349h2.7v42.4h-2.7v-9.6l-14,9.6H335.9z"/>
		<path class="st0" d="M397.9,391.3V349h2.7v39.7H429v2.7H397.9z"/>
		<path class="st0" d="M453.6,391.3v-39.7h-5.4V349h5.4v-6h2.7v6H490v2.7h-33.8v37h31.1v-4.8h2.7v7.5H453.6z"/>
		<path class="st0" d="M514.6,351.6V349h2.7v2.7H514.6z M514.6,391.3v-25h2.7v25H514.6z"/>
		<path class="st0" d="M541.8,391.3v-2.7h31v-18h-31V349h33.7v2.7h-31V368h31v23.3H541.8z"/>
		<path class="st0" d="M605.5,391.3v-39.7h-5.4V349h5.4v-6h2.7v6h33.8v2.7h-33.8v37h31.1v-4.8h2.7v7.5H605.5z"/>
		<path class="st0" d="M666.5,391.3v-2.7h31v-18h-31V349h33.7v2.7h-31V368h31v23.3H666.5z"/>
	</g>
</g>
</svg>
